<?xml version="1.0" encoding="utf-8"?>
<svg width="219" height="90" viewBox="0 0 219 90" fill="none" xmlns="http://www.w3.org/2000/svg">
  <g clip-path="url(#clip0_75_204)">
    <path d="M16.5992 21.8283C20.8679 21.8283 23.6227 19.7544 23.6227 16.08V5.64282H19.6022V15.8545C19.6022 17.6579 18.4357 18.6723 16.5992 18.6723C14.7875 18.6723 13.5963 17.6579 13.5963 15.8545V5.64282H9.60059V16.08C9.60059 19.7544 12.3305 21.8283 16.5992 21.8283Z" style="fill: rgb(0, 0, 0);"/>
    <path d="M27.295 21.4227H31.03V12.6583C31.03 9.85091 32.4006 8.24182 34.8334 8.24182C37.4376 8.24182 38.3285 9.71397 38.3285 13.1033V21.4227H42.0634V11.3915C42.0634 7.21473 40.076 5.05786 36.2383 5.05786C33.874 5.05786 32.0237 5.98224 31.03 7.69404V5.46869H27.295V21.4227ZM58.4423 5.46869V7.62557C57.4829 6.01647 55.564 5.05786 53.4396 5.05786C48.6424 5.05786 45.49 8.75536 45.49 13.4457C45.49 18.136 48.3683 21.8335 53.3368 21.8335C55.2899 21.8335 57.4829 20.8749 58.4423 19.2658V21.0119C58.4423 24.6067 56.8318 25.9419 53.7822 25.9419C51.2123 25.9419 49.876 24.8806 49.5676 23.2372H45.6613C45.7298 25.0175 46.6893 26.5581 48.1969 27.5852C49.6704 28.578 51.692 29.0231 53.8165 29.0231C56.1123 29.0231 57.9626 28.6123 59.2989 27.6194C61.1835 26.25 62.1772 23.8877 62.1772 20.738V5.46869H58.4423ZM53.885 18.5126C51.0752 18.5126 49.2249 16.3558 49.2249 13.4457C49.2249 10.5356 51.0752 8.37876 53.885 8.37876C56.9346 8.37876 58.6136 10.7068 58.6136 13.4457C58.6136 16.1846 56.9346 18.5126 53.885 18.5126ZM73.9303 21.8335C77.768 21.8335 80.7833 19.7451 81.2631 16.7666H77.4939C76.8771 17.9991 75.7806 18.5811 73.9303 18.5811C71.2233 18.5811 69.5786 17.2117 69.4758 14.6782H81.3316C81.4001 13.7881 81.4344 13.2745 81.4344 12.624C81.4344 8.13911 78.3505 5.05786 73.7932 5.05786C68.9275 5.05786 65.7751 8.34452 65.7751 13.4457C65.7751 18.6153 68.8932 21.8335 73.9303 21.8335ZM69.4758 11.8366C69.51 9.57702 71.0862 8.00216 73.7247 8.00216C76.2946 8.00216 77.7337 9.37161 77.768 11.8366H69.4758ZM85.0323 21.4227H88.7672V14.3701C88.7672 10.7411 90.3777 8.75536 93.0161 8.75536C93.5986 8.75536 93.907 8.75536 94.4895 8.82383V5.40022C94.0783 5.29751 93.5986 5.26328 93.0161 5.26328C91.2686 5.26328 89.3497 6.29036 88.7672 8.54994V5.46869H85.0323V21.4227Z" style="fill: rgb(0, 0, 0);"/>
    <path d="M3.97677 4.896C5.32492 4.896 6.41789 3.80035 6.41789 2.44854C6.41789 1.09553 5.32492 -0.000112534 3.97677 -0.000112534C2.62861 -0.000112534 1.53564 1.09553 1.53564 2.44854C1.53564 3.80035 2.62861 4.896 3.97677 4.896Z" style="fill: rgb(0, 0, 0);"/>
    <path d="M1.99797 5.75554H5.84021L5.92688 40.3843C5.92688 40.3843 6.53595 44.0044 3.45686 44.7212C1.04944 45.2804 0.149067 44.6261 0.0624003 44.6261C-0.0242668 44.6261 0.00462225 41.5341 0.00462225 41.5341L0.66907 41.6231C0.66907 41.6231 1.82463 41.8612 1.96908 40.7607C2.11352 39.6615 1.99797 5.75554 1.99797 5.75554Z" style="fill: rgb(0, 0, 0);"/>
    <path d="M41.8539 39.964H37.1264L31.0628 46.9808V31.9546H27.363V55.9144H31.0628V48.6238L36.9551 55.9144H41.8539L34.9339 47.5969L41.8539 39.964ZM51.7544 56.3251C53.7071 56.3251 55.8995 55.3667 56.893 53.758V55.9144H60.5928V39.964H56.893V42.1204C55.8995 40.5117 53.9811 39.5533 51.8572 39.5533C46.8898 39.5533 43.9094 43.2499 43.9094 47.9392C43.9094 52.6285 46.6157 56.3251 51.7544 56.3251ZM52.3025 53.005C49.3906 53.005 47.6435 50.8486 47.6435 47.9392C47.6435 45.0298 49.3906 42.8734 52.3025 42.8734C55.4885 42.8734 57.03 45.2009 57.03 47.9392C57.03 50.6774 55.4885 53.005 52.3025 53.005ZM65.3889 55.9144H69.123V47.46C69.123 43.6607 70.6646 42.7365 72.5487 42.7365C74.5014 42.7365 75.4606 43.866 75.4606 46.5016V55.9144H79.1947V47.46C79.1947 43.6607 80.6678 42.7365 82.5519 42.7365C84.5046 42.7365 85.5324 43.9003 85.5324 46.5358V55.9144H89.2664V45.817C89.2664 42.8392 88.3072 39.5533 83.5112 39.5533C81.2502 39.5533 79.366 40.7855 78.6123 42.3942C77.9272 40.8197 76.4884 39.5533 73.5765 39.5533C71.4867 39.5533 69.8081 40.717 69.123 42.1888V39.964H65.3889V55.9144ZM93.8912 55.9144H97.6253V47.46C97.6253 43.6607 99.1669 42.7365 101.051 42.7365C103.004 42.7365 103.963 43.866 103.963 46.5016V55.9144H107.697V47.46C107.697 43.6607 109.17 42.7365 111.054 42.7365C113.007 42.7365 114.035 43.9003 114.035 46.5358V55.9144H117.769V45.817C117.769 42.8392 116.81 39.5533 112.013 39.5533C109.752 39.5533 107.868 40.7855 107.115 42.3942C106.429 40.8197 104.991 39.5533 102.079 39.5533C99.9891 39.5533 98.3104 40.717 97.6253 42.1888V39.964H93.8912V55.9144ZM129.348 56.3251C133.185 56.3251 136.199 54.2372 136.679 51.2593H132.911C132.294 52.4915 131.198 53.0734 129.348 53.0734C126.641 53.0734 124.997 51.7043 124.894 49.1714H136.747C136.816 48.2815 136.85 47.768 136.85 47.1177C136.85 42.6338 133.767 39.5533 129.211 39.5533C124.346 39.5533 121.195 42.8392 121.195 47.9392C121.195 53.1077 124.312 56.3251 129.348 56.3251ZM124.894 46.3305C124.929 44.0714 126.504 42.4969 129.142 42.4969C131.712 42.4969 133.15 43.866 133.185 46.3305H124.894ZM140.447 55.9144H144.181V48.8633C144.181 45.2352 145.791 43.2499 148.429 43.2499C149.012 43.2499 149.32 43.2499 149.902 43.3184V39.8955C149.491 39.7929 149.012 39.7586 148.429 39.7586C146.682 39.7586 144.764 40.7855 144.181 43.0445V39.964H140.447V55.9144ZM159.734 56.3251C164.188 56.3251 166.963 53.9634 167.305 50.4036H163.571C163.16 52.0808 161.995 53.005 159.734 53.005C157.096 53.005 155.521 51.1909 155.521 47.9392C155.521 44.6875 157.096 42.8734 159.734 42.8734C161.995 42.8734 163.16 43.8318 163.571 45.6459H167.305C166.963 41.9835 164.188 39.5533 159.734 39.5533C154.767 39.5533 151.787 42.9761 151.787 47.9392C151.787 52.9023 154.767 56.3251 159.734 56.3251ZM179.843 39.5533C177.48 39.5533 175.63 40.4774 174.636 42.1888V31.9546H170.902V55.9144H174.636V47.1519C174.636 44.3452 176.007 42.7365 178.439 42.7365C181.043 42.7365 181.933 44.2083 181.933 47.5969V55.9144H185.667V45.8855C185.667 41.7096 183.68 39.5533 179.843 39.5533ZM197.52 56.3251C202.796 56.3251 205.948 52.6285 205.948 47.9392C205.948 43.2499 202.796 39.5533 197.52 39.5533C192.245 39.5533 189.093 43.2499 189.093 47.9392C189.093 52.6285 192.245 56.3251 197.52 56.3251ZM197.52 53.005C194.506 53.005 192.827 50.8486 192.827 47.9392C192.827 45.0298 194.506 42.8734 197.52 42.8734C200.535 42.8734 202.214 45.0298 202.214 47.9392C202.214 50.8486 200.535 53.005 197.52 53.005ZM209.545 55.9144H213.279V48.8633C213.279 45.2352 214.889 43.2499 217.527 43.2499C218.109 43.2499 218.418 43.2499 219 43.3184V39.8955C218.589 39.7929 218.109 39.7586 217.527 39.7586C215.78 39.7586 213.861 40.7855 213.279 43.0445V39.964H209.545V55.9144Z" style="fill: rgb(0, 0, 0);"/>
    <path d="M36.4412 73.2281C34.1802 73.2281 32.0563 74.2549 31.0628 75.7952V65.6294H27.363V89.5892H31.0628V87.4328C32.0563 88.9731 34.0775 89.9999 36.2014 89.9999C40.8262 89.9999 44.0464 86.5429 44.0464 81.614C44.0464 76.5824 40.9975 73.2281 36.4412 73.2281ZM35.6533 86.6798C32.8442 86.6798 30.9258 84.6261 30.9258 81.614C30.9258 78.6019 32.8442 76.5482 35.6533 76.5482C38.3939 76.5482 40.3123 78.6361 40.3123 81.614C40.3123 84.5919 38.3939 86.6798 35.6533 86.6798ZM54.5978 89.9999C58.4346 89.9999 61.4493 87.912 61.9289 84.9341H58.1605C57.5439 86.1664 56.4477 86.7482 54.5978 86.7482C51.8914 86.7482 50.247 85.3791 50.1443 82.8462H61.9974C62.0659 81.9563 62.1002 81.4429 62.1002 80.7925C62.1002 76.3086 59.017 73.2281 54.4607 73.2281C49.5962 73.2281 46.4445 76.514 46.4445 81.614C46.4445 86.7825 49.5619 89.9999 54.5978 89.9999ZM50.1443 80.0053C50.1785 77.7462 51.7544 76.1717 54.3922 76.1717C56.9615 76.1717 58.4004 77.5408 58.4346 80.0053H50.1443ZM65.6972 89.5892H69.4313V82.5382C69.4313 78.91 71.0414 76.9247 73.6792 76.9247C74.2616 76.9247 74.5699 76.9247 75.1523 76.9932V73.5704C74.7412 73.4677 74.2616 73.4334 73.6792 73.4334C71.9321 73.4334 70.0137 74.4603 69.4313 76.7194V73.6388H65.6972V89.5892ZM78.2355 89.5892H81.9696V65.6294H78.2355V89.5892ZM88.6155 71.3455C90.2599 71.3455 91.3904 70.1133 91.3904 68.573C91.3904 67.0328 90.2599 65.8005 88.6155 65.8005C86.9712 65.8005 85.8407 67.0328 85.8407 68.573C85.8407 70.1133 86.9712 71.3455 88.6155 71.3455ZM86.7656 89.5892H90.4654V73.6388H86.7656V89.5892ZM95.2615 89.5892H98.9956V80.8267C98.9956 78.02 100.366 76.4113 102.798 76.4113C105.402 76.4113 106.292 77.8831 106.292 81.2717V89.5892H110.027V79.5603C110.027 75.3844 108.04 73.2281 104.203 73.2281C101.839 73.2281 99.9891 74.1522 98.9956 75.8636V73.6388H95.2615V89.5892Z" style="fill: rgb(0, 0, 0);"/>
  </g>
  <defs>
    <clipPath id="clip0_75_204">
      <rect width="219" height="90" fill="white"/>
    </clipPath>
  </defs>
</svg>